<svg id="Iconly_Broken_Show" data-name="Iconly/Broken/Show" xmlns="http://www.w3.org/2000/svg" width="15" height="12" viewBox="0 0 15 12">
  <g id="Show">
    <path id="Show-2" data-name="Show" d="M7.5,12h0C4.4,12,1.611,9.836.045,6.215a.541.541,0,0,1,0-.43C1.611,2.165,4.4,0,7.5,0h0c3.1,0,5.889,2.165,7.454,5.785a.541.541,0,0,1,0,.43,12.788,12.788,0,0,1-.617,1.241.55.55,0,0,1-.748.208.544.544,0,0,1-.208-.743c.166-.293.324-.6.468-.921C12.451,2.922,10.09,1.092,7.5,1.091S2.549,2.922,1.148,6c1.4,3.078,3.762,4.909,6.352,4.909a6.081,6.081,0,0,0,4.2-1.8.552.552,0,0,1,.775.018.541.541,0,0,1-.018.77A7.158,7.158,0,0,1,7.5,12ZM6,8.493a.542.542,0,0,1-.188-.748.549.549,0,0,1,.753-.186A1.814,1.814,0,1,0,5.673,6a.548.548,0,0,1-1.1,0A2.919,2.919,0,1,1,6,8.493Z" fill="#457c77"/>
  </g>
</svg>
